# xmcd
#
# Track frame offsets: 
#        150
#        15677
#        27115
#        44562
#        60857
#        81887
#        98850
#        118625
#        135972
#        153634
#
# Disc length: 2239 seconds
#
# Revision: 5
# Processed by: cddbd v1.5.2PL0 Copyright (c) Steve Scherf et al.
# Submitted via: ExactAudioCopy v1.0b3
#
DISCID=7408bd0a
DTITLE=Geraldo Azevedo - Raizes E Frutos [CD1 - Raizes)
DYEAR=1998
DGENRE=MPB
TTITLE0=Dona Da Minha Cabeca
TTITLE1=Moca Bonita
TTITLE2=Taxi Lunar
TTITLE3=O Amanha E Distante
TTITLE4=Chorando E Cantando
TTITLE5=Setimo Ceu
TTITLE6=Morena Linda Flor
TTITLE7=Rasgo De Lua
TTITLE8=Beleza Agreste
TTITLE9=For All Para Todos
EXTD=
EXTT0=
EXTT1=
EXTT2=
EXTT3=
EXTT4=
EXTT5=
EXTT6=
EXTT7=
EXTT8=
EXTT9=
PLAYORDER=
